<svg xmlns="http://www.w3.org/2000/svg" xmlns:xlink="http://www.w3.org/1999/xlink" viewBox="0 0 160 160"><defs><style>.cls-1,.cls-3,.cls-4,.cls-5{fill:none;stroke:#000;stroke-miterlimit:10;}.cls-1,.cls-4{opacity:0.7;}.cls-1{clip-rule:evenodd;}.cls-2{clip-path:url(#clip-path);}.cls-4,.cls-5{fill-rule:evenodd;}</style><clipPath id="clip-path"><path class="cls-1" d="M79.71,90.87A11.25,11.25,0,1,1,90.94,79.6,11.22,11.22,0,0,1,79.71,90.87"/></clipPath></defs><title>consul</title><g id="Consul"><g class="cls-2"><line class="cls-3" x1="-75.73" y1="90.02" x2="489.9" y2="410.91"/><line class="cls-3" x1="-75.73" y1="85.91" x2="489.9" y2="406.8"/><line class="cls-3" x1="-75.73" y1="81.8" x2="489.9" y2="402.7"/><line class="cls-3" x1="-75.73" y1="77.69" x2="489.9" y2="398.59"/><line class="cls-3" x1="-75.73" y1="73.58" x2="489.9" y2="394.48"/><line class="cls-3" x1="-75.73" y1="69.47" x2="489.9" y2="390.37"/><line class="cls-3" x1="-75.73" y1="65.36" x2="489.9" y2="386.26"/><line class="cls-3" x1="-75.73" y1="61.26" x2="489.9" y2="382.15"/><line class="cls-3" x1="-75.73" y1="57.15" x2="489.9" y2="378.04"/><line class="cls-3" x1="-75.73" y1="53.04" x2="489.9" y2="373.94"/><line class="cls-3" x1="-75.73" y1="48.93" x2="489.9" y2="369.83"/><line class="cls-3" x1="-75.73" y1="44.82" x2="489.9" y2="365.72"/><line class="cls-3" x1="-75.73" y1="40.71" x2="489.9" y2="361.61"/><line class="cls-3" x1="-75.73" y1="36.6" x2="489.9" y2="357.5"/><line class="cls-3" x1="-75.73" y1="32.5" x2="489.9" y2="353.39"/><line class="cls-3" x1="-75.73" y1="28.39" x2="489.9" y2="349.28"/><line class="cls-3" x1="-75.73" y1="24.28" x2="489.9" y2="345.17"/><line class="cls-3" x1="-75.73" y1="20.17" x2="489.9" y2="341.07"/><line class="cls-3" x1="-75.73" y1="16.06" x2="489.9" y2="336.96"/><line class="cls-3" x1="-75.73" y1="11.95" x2="489.9" y2="332.85"/><line class="cls-3" x1="-75.73" y1="7.84" x2="489.9" y2="328.74"/><line class="cls-3" x1="-75.73" y1="3.74" x2="489.9" y2="324.63"/><line class="cls-3" x1="-75.73" y1="-0.37" x2="489.9" y2="320.52"/><line class="cls-3" x1="-75.73" y1="-4.48" x2="489.9" y2="316.41"/><line class="cls-3" x1="-75.73" y1="-8.59" x2="489.9" y2="312.31"/><line class="cls-3" x1="-75.73" y1="-12.7" x2="489.9" y2="308.2"/><line class="cls-3" x1="-75.73" y1="-16.81" x2="489.9" y2="304.09"/><line class="cls-3" x1="-75.73" y1="-20.92" x2="489.9" y2="299.98"/><line class="cls-3" x1="-75.73" y1="-25.02" x2="489.9" y2="295.87"/><line class="cls-3" x1="-75.73" y1="-29.13" x2="489.9" y2="291.76"/><line class="cls-3" x1="-75.73" y1="-33.24" x2="489.9" y2="287.65"/><line class="cls-3" x1="-75.73" y1="-37.35" x2="489.9" y2="283.55"/><line class="cls-3" x1="-75.73" y1="-41.46" x2="489.9" y2="279.44"/><line class="cls-3" x1="-75.73" y1="-45.57" x2="489.9" y2="275.33"/><line class="cls-3" x1="-72.93" y1="-48.37" x2="492.71" y2="272.52"/><line class="cls-3" x1="-70.12" y1="-51.18" x2="495.51" y2="269.72"/><line class="cls-3" x1="-67.32" y1="-53.98" x2="498.31" y2="266.92"/><line class="cls-3" x1="-64.52" y1="-56.78" x2="501.12" y2="264.11"/><line class="cls-3" x1="-61.71" y1="-59.59" x2="503.92" y2="261.31"/><line class="cls-3" x1="-58.91" y1="-62.39" x2="506.73" y2="258.5"/><line class="cls-3" x1="-56.1" y1="-65.2" x2="509.53" y2="255.7"/><line class="cls-3" x1="-53.3" y1="-68" x2="512.33" y2="252.9"/><line class="cls-3" x1="-50.5" y1="-70.81" x2="515.14" y2="250.09"/><line class="cls-3" x1="-47.69" y1="-73.61" x2="517.94" y2="247.29"/><line class="cls-3" x1="-44.89" y1="-76.41" x2="520.75" y2="244.48"/><line class="cls-3" x1="-42.08" y1="-79.22" x2="523.55" y2="241.68"/></g><path class="cls-4" d="M79.71,90.87A11.25,11.25,0,1,1,90.94,79.6,11.22,11.22,0,0,1,79.71,90.87"/><path class="cls-5" d="M101.62,84.81a5.19,5.19,0,1,1,5.18-5.19,5.17,5.17,0,0,1-5.18,5.19"/><path class="cls-5" d="M120.61,89.7h0a5,5,0,1,1,.1-.41c0,.13,0,.26-.1.41"/><path class="cls-5" d="M116.93,76.33a5.2,5.2,0,1,1,3.85-6.24,5.58,5.58,0,0,1,.06,2,5,5,0,0,1-3.91,4.21"/><path class="cls-5" d="M135.39,89.13a5.19,5.19,0,1,1-4.21-6,5.23,5.23,0,0,1,4.32,5.55,1.15,1.15,0,0,0-.11.46"/><path class="cls-5" d="M131.17,76.11a5.18,5.18,0,1,1,4.27-6,5.93,5.93,0,0,1,.05,1.33,5.16,5.16,0,0,1-4.32,4.63"/><path class="cls-5" d="M127.55,107.1h0a5.26,5.26,0,1,1,.64-2.13,4.62,4.62,0,0,1-.64,2.13"/><path class="cls-5" d="M125.68,59.41a5.21,5.21,0,1,1,2-7.09,4.93,4.93,0,0,1,.64,3,5.23,5.23,0,0,1-2.62,4.08"/><path class="cls-3" d="M79.91,131.92a52.17,52.17,0,1,1,0-104.34A51.67,51.67,0,0,1,111.59,38.3l-6.38,8.32a41.7,41.7,0,1,0-25.3,74.82,41.31,41.31,0,0,0,25.31-8.56l6.36,8.33A51.73,51.73,0,0,1,79.91,131.92Z"/><path class="cls-5" d="M79.71,90.87A11.25,11.25,0,1,1,90.94,79.6,11.22,11.22,0,0,1,79.71,90.87"/></g></svg>