<svg xmlns="http://www.w3.org/2000/svg" xmlns:xlink="http://www.w3.org/1999/xlink" viewBox="0 0 160 160"><defs><style>.cls-1,.cls-3{fill:none;}.cls-2{clip-path:url(#clip-path);}.cls-3{stroke:#000;stroke-miterlimit:10;}</style><clipPath id="clip-path"><polygon class="cls-1" points="106.88 63.65 106.88 86.75 90.79 96.04 79.55 89.08 79.55 149.39 79.55 149.39 140.48 114.57 140.48 45.02 140.48 45.02 106.88 63.65"/></clipPath></defs><title>nomad</title><g id="Nomad"><g class="cls-2"><line class="cls-3" x1="-192.58" y1="-6.69" x2="373.06" y2="314.21"/><line class="cls-3" x1="-192.58" y1="-10.8" x2="373.06" y2="310.1"/><line class="cls-3" x1="-192.58" y1="-14.91" x2="373.06" y2="305.99"/><line class="cls-3" x1="-192.58" y1="-19.02" x2="373.06" y2="301.88"/><line class="cls-3" x1="-192.58" y1="-23.12" x2="373.06" y2="297.77"/><line class="cls-3" x1="-192.58" y1="-27.23" x2="373.06" y2="293.66"/><line class="cls-3" x1="-192.58" y1="-31.34" x2="373.06" y2="289.56"/><line class="cls-3" x1="-192.58" y1="-35.45" x2="373.06" y2="285.45"/><line class="cls-3" x1="-192.58" y1="-39.56" x2="373.06" y2="281.34"/><line class="cls-3" x1="-192.58" y1="-43.67" x2="373.06" y2="277.23"/><line class="cls-3" x1="-192.58" y1="-47.78" x2="373.06" y2="273.12"/><line class="cls-3" x1="-192.58" y1="-51.88" x2="373.06" y2="269.01"/><line class="cls-3" x1="-192.58" y1="-55.99" x2="373.06" y2="264.9"/><line class="cls-3" x1="-192.58" y1="-60.1" x2="373.06" y2="260.79"/><line class="cls-3" x1="-192.58" y1="-64.21" x2="373.06" y2="256.69"/><line class="cls-3" x1="-192.58" y1="-68.32" x2="373.06" y2="252.58"/><line class="cls-3" x1="-192.58" y1="-72.43" x2="373.06" y2="248.47"/><line class="cls-3" x1="-192.58" y1="-76.54" x2="373.06" y2="244.36"/><line class="cls-3" x1="-192.58" y1="-80.64" x2="373.06" y2="240.25"/><line class="cls-3" x1="-192.58" y1="-84.75" x2="373.06" y2="236.14"/><line class="cls-3" x1="-192.58" y1="-88.86" x2="373.06" y2="232.03"/><line class="cls-3" x1="-192.58" y1="-92.97" x2="373.06" y2="227.93"/><line class="cls-3" x1="-192.58" y1="-97.08" x2="373.06" y2="223.82"/><line class="cls-3" x1="-192.58" y1="-101.19" x2="373.06" y2="219.71"/><line class="cls-3" x1="-192.58" y1="-105.3" x2="373.06" y2="215.6"/><line class="cls-3" x1="-192.58" y1="-109.4" x2="373.06" y2="211.49"/><line class="cls-3" x1="-192.58" y1="-113.51" x2="373.06" y2="207.38"/><line class="cls-3" x1="-192.58" y1="-117.62" x2="373.06" y2="203.27"/><line class="cls-3" x1="-192.58" y1="-121.73" x2="373.06" y2="199.17"/><line class="cls-3" x1="-192.58" y1="-125.84" x2="373.06" y2="195.06"/><line class="cls-3" x1="-192.58" y1="-129.95" x2="373.06" y2="190.95"/><line class="cls-3" x1="-192.58" y1="-134.06" x2="373.06" y2="186.84"/><line class="cls-3" x1="-192.58" y1="-138.17" x2="373.06" y2="182.73"/><line class="cls-3" x1="-192.58" y1="-142.27" x2="373.06" y2="178.62"/></g><path class="cls-3" d="M79,10.11,18.61,45v69.54l60.94,34.82,60.93-34.82V45Zm27.84,76.64L90.79,96l-11.24-7-8.13-4.64v23.2L53.14,119.23V72.82l6.93-4.27L67.63,64l20,11.17V51.91l19.21-11.54V86.75Z"/><line class="cls-3" x1="18.61" y1="45.03" x2="60.07" y2="68.55"/><line class="cls-3" x1="79.55" y1="149.39" x2="79.55" y2="89.08"/><line class="cls-3" x1="106.88" y1="63.65" x2="140.48" y2="45.02"/></g></svg>