<svg xmlns="http://www.w3.org/2000/svg" xmlns:xlink="http://www.w3.org/1999/xlink" viewBox="0 0 160 160"><defs><style>.cls-1,.cls-3,.cls-4{fill:none;}.cls-1{opacity:0.7;}.cls-2{clip-path:url(#clip-path);}.cls-3,.cls-4{stroke:#000;stroke-miterlimit:10;}.cls-4{fill-rule:evenodd;}</style><clipPath id="clip-path"><path class="cls-1" d="M102.16,42.9,58.47,17.73V35.21L88.18,52.37v52.44l14,8c8.66,5,15.73,2,15.73-6.65V67.71C117.89,59.06,110.82,47.9,102.16,42.9Z"/></clipPath></defs><title>packer</title><g id="Packer"><g class="cls-2"><line class="cls-3" x1="-148.54" y1="3.78" x2="417.1" y2="324.68"/><line class="cls-3" x1="-148.54" y1="-0.33" x2="417.1" y2="320.57"/><line class="cls-3" x1="-148.54" y1="-4.44" x2="417.1" y2="316.46"/><line class="cls-3" x1="-148.54" y1="-8.54" x2="417.1" y2="312.35"/><line class="cls-3" x1="-148.54" y1="-12.65" x2="417.1" y2="308.24"/><line class="cls-3" x1="-148.54" y1="-16.76" x2="417.1" y2="304.14"/><line class="cls-3" x1="-148.54" y1="-20.87" x2="417.1" y2="300.03"/><line class="cls-3" x1="-148.54" y1="-24.98" x2="417.1" y2="295.92"/><line class="cls-3" x1="-148.54" y1="-29.09" x2="417.1" y2="291.81"/><line class="cls-3" x1="-148.54" y1="-33.2" x2="417.1" y2="287.7"/><line class="cls-3" x1="-148.54" y1="-37.3" x2="417.1" y2="283.59"/><line class="cls-3" x1="-148.54" y1="-41.41" x2="417.1" y2="279.48"/><line class="cls-3" x1="-148.54" y1="-45.52" x2="417.1" y2="275.37"/><line class="cls-3" x1="-148.54" y1="-49.63" x2="417.1" y2="271.27"/><line class="cls-3" x1="-148.54" y1="-53.74" x2="417.1" y2="267.16"/><line class="cls-3" x1="-148.54" y1="-57.85" x2="417.1" y2="263.05"/><line class="cls-3" x1="-148.54" y1="-61.96" x2="417.1" y2="258.94"/><line class="cls-3" x1="-148.54" y1="-66.06" x2="417.1" y2="254.83"/><line class="cls-3" x1="-148.54" y1="-70.17" x2="417.1" y2="250.72"/><line class="cls-3" x1="-148.54" y1="-74.28" x2="417.1" y2="246.61"/><line class="cls-3" x1="-148.54" y1="-78.39" x2="417.1" y2="242.51"/><line class="cls-3" x1="-148.54" y1="-82.5" x2="417.1" y2="238.4"/><line class="cls-3" x1="-148.54" y1="-86.61" x2="417.1" y2="234.29"/><line class="cls-3" x1="-148.54" y1="-90.72" x2="417.1" y2="230.18"/><line class="cls-3" x1="-148.54" y1="-94.82" x2="417.1" y2="226.07"/><line class="cls-3" x1="-148.54" y1="-98.93" x2="417.1" y2="221.96"/><line class="cls-3" x1="-148.54" y1="-103.04" x2="417.1" y2="217.85"/><line class="cls-3" x1="-148.54" y1="-107.15" x2="417.1" y2="213.75"/><line class="cls-3" x1="-148.54" y1="-111.26" x2="417.1" y2="209.64"/><line class="cls-3" x1="-148.54" y1="-115.37" x2="417.1" y2="205.53"/><line class="cls-3" x1="-148.54" y1="-119.48" x2="417.1" y2="201.42"/><line class="cls-3" x1="-148.54" y1="-123.59" x2="417.1" y2="197.31"/><line class="cls-3" x1="-148.54" y1="-127.69" x2="417.1" y2="193.2"/><line class="cls-3" x1="-148.54" y1="-131.8" x2="417.1" y2="189.09"/><line class="cls-3" x1="-145.73" y1="-134.61" x2="419.9" y2="186.29"/><line class="cls-3" x1="-142.93" y1="-137.41" x2="422.7" y2="183.49"/><line class="cls-3" x1="-140.13" y1="-140.21" x2="425.51" y2="180.68"/><line class="cls-3" x1="-137.32" y1="-143.02" x2="428.31" y2="177.88"/><line class="cls-3" x1="-134.52" y1="-145.82" x2="431.12" y2="175.07"/><line class="cls-3" x1="-131.71" y1="-148.63" x2="433.92" y2="172.27"/><line class="cls-3" x1="-128.91" y1="-151.43" x2="436.72" y2="169.46"/><line class="cls-3" x1="-126.11" y1="-154.24" x2="439.53" y2="166.66"/><line class="cls-3" x1="-123.3" y1="-157.04" x2="442.33" y2="163.86"/><line class="cls-3" x1="-120.5" y1="-159.84" x2="445.14" y2="161.05"/><line class="cls-3" x1="-117.69" y1="-162.65" x2="447.94" y2="158.25"/><line class="cls-3" x1="-114.89" y1="-165.45" x2="450.75" y2="155.44"/></g><polygon class="cls-4" points="42.06 32.89 82.26 56.12 82.26 141.77 42.06 118.54 42.06 32.89"/><path class="cls-3" d="M102.16,42.9,58.47,17.73V35.21L88.18,52.37v52.44l14,8c8.66,5,15.73,2,15.73-6.65V67.71C117.89,59.06,110.82,47.9,102.16,42.9Z"/></g></svg>