<svg xmlns="http://www.w3.org/2000/svg" xmlns:xlink="http://www.w3.org/1999/xlink" viewBox="0 0 160 160"><defs><style>.cls-1,.cls-2{fill:none;}.cls-2{stroke:#000;stroke-miterlimit:10;}.cls-3{clip-path:url(#clip-path);}.cls-4{clip-path:url(#clip-path-2);}</style><clipPath id="clip-path"><polygon class="cls-1" points="141.37 37.93 141.37 26.31 113.47 42.54 113.47 52.35 91.16 102.61 79.99 109.09 79.99 143.46 103.92 129.66 141.37 37.93"/></clipPath><clipPath id="clip-path-2"><polygon class="cls-1" points="79.99 83.08 63.26 44.03 63.26 32.99 63.26 32.99 46.52 42.54 46.52 52.35 68.84 102.61 79.99 96.14 79.99 83.08"/></clipPath></defs><title>vagrant</title><g id="Vagrant"><polyline class="cls-2" points="79.91 82.9 63.26 44.03 63.26 32.99 35.36 16.55 18.62 26.31 18.62 38.28 56.29 129.77 79.99 143.46 103.92 129.66 141.37 37.93 141.38 26.31 124.64 16.55 96.73 32.89 96.73 32.89 96.73 44.03 79.99 83.08 79.99 96.14"/><g class="cls-3"><line class="cls-2" x1="-213.12" y1="-10.15" x2="352.51" y2="310.74"/><line class="cls-2" x1="-213.12" y1="-14.26" x2="352.51" y2="306.63"/><line class="cls-2" x1="-213.12" y1="-18.37" x2="352.51" y2="302.53"/><line class="cls-2" x1="-213.12" y1="-22.48" x2="352.51" y2="298.42"/><line class="cls-2" x1="-213.12" y1="-26.59" x2="352.51" y2="294.31"/><line class="cls-2" x1="-213.12" y1="-30.7" x2="352.51" y2="290.2"/><line class="cls-2" x1="-213.12" y1="-34.81" x2="352.51" y2="286.09"/><line class="cls-2" x1="-213.12" y1="-38.91" x2="352.51" y2="281.98"/><line class="cls-2" x1="-213.12" y1="-43.02" x2="352.51" y2="277.87"/><line class="cls-2" x1="-213.12" y1="-47.13" x2="352.51" y2="273.76"/><line class="cls-2" x1="-213.12" y1="-51.24" x2="352.51" y2="269.66"/><line class="cls-2" x1="-213.12" y1="-55.35" x2="352.51" y2="265.55"/><line class="cls-2" x1="-213.12" y1="-59.46" x2="352.51" y2="261.44"/><line class="cls-2" x1="-213.12" y1="-63.57" x2="352.51" y2="257.33"/><line class="cls-2" x1="-213.12" y1="-67.67" x2="352.51" y2="253.22"/><line class="cls-2" x1="-213.12" y1="-71.78" x2="352.51" y2="249.11"/><line class="cls-2" x1="-213.12" y1="-75.89" x2="352.51" y2="245"/><line class="cls-2" x1="-213.12" y1="-80" x2="352.51" y2="240.9"/><line class="cls-2" x1="-213.12" y1="-84.11" x2="352.51" y2="236.79"/><line class="cls-2" x1="-213.12" y1="-88.22" x2="352.51" y2="232.68"/><line class="cls-2" x1="-213.12" y1="-92.33" x2="352.51" y2="228.57"/><line class="cls-2" x1="-213.12" y1="-96.43" x2="352.51" y2="224.46"/><line class="cls-2" x1="-213.12" y1="-100.54" x2="352.51" y2="220.35"/><line class="cls-2" x1="-213.12" y1="-104.65" x2="352.51" y2="216.24"/><line class="cls-2" x1="-213.12" y1="-108.76" x2="352.51" y2="212.14"/><line class="cls-2" x1="-213.12" y1="-112.87" x2="352.51" y2="208.03"/><line class="cls-2" x1="-213.12" y1="-116.98" x2="352.51" y2="203.92"/><line class="cls-2" x1="-213.12" y1="-121.09" x2="352.51" y2="199.81"/><line class="cls-2" x1="-213.12" y1="-125.19" x2="352.51" y2="195.7"/><line class="cls-2" x1="-213.12" y1="-129.3" x2="352.51" y2="191.59"/><line class="cls-2" x1="-213.12" y1="-133.41" x2="352.51" y2="187.48"/><line class="cls-2" x1="-213.12" y1="-137.52" x2="352.51" y2="183.38"/><line class="cls-2" x1="-213.12" y1="-141.63" x2="352.51" y2="179.27"/><line class="cls-2" x1="-213.12" y1="-145.74" x2="352.51" y2="175.16"/><line class="cls-2" x1="-210.32" y1="-148.54" x2="355.31" y2="172.35"/><line class="cls-2" x1="-207.52" y1="-151.35" x2="358.12" y2="169.55"/><line class="cls-2" x1="-204.71" y1="-154.15" x2="360.92" y2="166.75"/><line class="cls-2" x1="-201.91" y1="-156.95" x2="363.73" y2="163.94"/><line class="cls-2" x1="-199.1" y1="-159.76" x2="366.53" y2="161.14"/><line class="cls-2" x1="-196.3" y1="-162.56" x2="369.33" y2="158.33"/><line class="cls-2" x1="-193.5" y1="-165.37" x2="372.14" y2="155.53"/><line class="cls-2" x1="-190.69" y1="-168.17" x2="374.94" y2="152.72"/><line class="cls-2" x1="-187.89" y1="-170.98" x2="377.75" y2="149.92"/><line class="cls-2" x1="-185.08" y1="-173.78" x2="380.55" y2="147.12"/><line class="cls-2" x1="-182.28" y1="-176.58" x2="383.36" y2="144.31"/><line class="cls-2" x1="-179.47" y1="-179.39" x2="386.16" y2="141.51"/></g><g class="cls-4"><line class="cls-2" x1="-213.12" y1="-10.15" x2="352.51" y2="310.74"/><line class="cls-2" x1="-213.12" y1="-14.26" x2="352.51" y2="306.63"/><line class="cls-2" x1="-213.12" y1="-18.37" x2="352.51" y2="302.53"/><line class="cls-2" x1="-213.12" y1="-22.48" x2="352.51" y2="298.42"/><line class="cls-2" x1="-213.12" y1="-26.59" x2="352.51" y2="294.31"/><line class="cls-2" x1="-213.12" y1="-30.7" x2="352.51" y2="290.2"/><line class="cls-2" x1="-213.12" y1="-34.81" x2="352.51" y2="286.09"/><line class="cls-2" x1="-213.12" y1="-38.91" x2="352.51" y2="281.98"/><line class="cls-2" x1="-213.12" y1="-43.02" x2="352.51" y2="277.87"/><line class="cls-2" x1="-213.12" y1="-47.13" x2="352.51" y2="273.76"/><line class="cls-2" x1="-213.12" y1="-51.24" x2="352.51" y2="269.66"/><line class="cls-2" x1="-213.12" y1="-55.35" x2="352.51" y2="265.55"/><line class="cls-2" x1="-213.12" y1="-59.46" x2="352.51" y2="261.44"/><line class="cls-2" x1="-213.12" y1="-63.57" x2="352.51" y2="257.33"/><line class="cls-2" x1="-213.12" y1="-67.67" x2="352.51" y2="253.22"/><line class="cls-2" x1="-213.12" y1="-71.78" x2="352.51" y2="249.11"/><line class="cls-2" x1="-213.12" y1="-75.89" x2="352.51" y2="245"/><line class="cls-2" x1="-213.12" y1="-80" x2="352.51" y2="240.9"/><line class="cls-2" x1="-213.12" y1="-84.11" x2="352.51" y2="236.79"/><line class="cls-2" x1="-213.12" y1="-88.22" x2="352.51" y2="232.68"/><line class="cls-2" x1="-213.12" y1="-92.33" x2="352.51" y2="228.57"/><line class="cls-2" x1="-213.12" y1="-96.43" x2="352.51" y2="224.46"/><line class="cls-2" x1="-213.12" y1="-100.54" x2="352.51" y2="220.35"/><line class="cls-2" x1="-213.12" y1="-104.65" x2="352.51" y2="216.24"/><line class="cls-2" x1="-213.12" y1="-108.76" x2="352.51" y2="212.14"/><line class="cls-2" x1="-213.12" y1="-112.87" x2="352.51" y2="208.03"/><line class="cls-2" x1="-213.12" y1="-116.98" x2="352.51" y2="203.92"/><line class="cls-2" x1="-213.12" y1="-121.09" x2="352.51" y2="199.81"/><line class="cls-2" x1="-213.12" y1="-125.19" x2="352.51" y2="195.7"/><line class="cls-2" x1="-213.12" y1="-129.3" x2="352.51" y2="191.59"/><line class="cls-2" x1="-213.12" y1="-133.41" x2="352.51" y2="187.48"/><line class="cls-2" x1="-213.12" y1="-137.52" x2="352.51" y2="183.38"/><line class="cls-2" x1="-213.12" y1="-141.63" x2="352.51" y2="179.27"/><line class="cls-2" x1="-213.12" y1="-145.74" x2="352.51" y2="175.16"/><line class="cls-2" x1="-210.32" y1="-148.54" x2="355.31" y2="172.35"/><line class="cls-2" x1="-207.52" y1="-151.35" x2="358.12" y2="169.55"/><line class="cls-2" x1="-204.71" y1="-154.15" x2="360.92" y2="166.75"/><line class="cls-2" x1="-201.91" y1="-156.95" x2="363.73" y2="163.94"/><line class="cls-2" x1="-199.1" y1="-159.76" x2="366.53" y2="161.14"/><line class="cls-2" x1="-196.3" y1="-162.56" x2="369.33" y2="158.33"/><line class="cls-2" x1="-193.5" y1="-165.37" x2="372.14" y2="155.53"/><line class="cls-2" x1="-190.69" y1="-168.17" x2="374.94" y2="152.72"/><line class="cls-2" x1="-187.89" y1="-170.98" x2="377.75" y2="149.92"/><line class="cls-2" x1="-185.08" y1="-173.78" x2="380.55" y2="147.12"/><line class="cls-2" x1="-182.28" y1="-176.58" x2="383.36" y2="144.31"/><line class="cls-2" x1="-179.47" y1="-179.39" x2="386.16" y2="141.51"/></g><polyline class="cls-2" points="141.37 26.31 113.47 42.54 113.47 52.35 91.16 102.61 79.99 109.09 79.99 143.46"/><polyline class="cls-2" points="63.26 32.99 63.26 32.99 46.52 42.54 46.52 52.35 68.84 102.61 79.99 96.14 79.99 83.08"/></g></svg>