<svg xmlns="http://www.w3.org/2000/svg" xmlns:xlink="http://www.w3.org/1999/xlink" viewBox="0 0 160 160"><defs><style>.cls-1,.cls-3{fill:none;stroke:#000;stroke-miterlimit:10;}.cls-1{opacity:0.5;}.cls-2{clip-path:url(#clip-path);}.cls-4{clip-path:url(#clip-path-2);}.cls-5{clip-path:url(#clip-path-3);}</style><clipPath id="clip-path"><rect class="cls-1" x="67.93" y="66.69" width="6.04" height="6.04"/></clipPath><clipPath id="clip-path-2"><rect class="cls-1" x="67.93" y="48.58" width="6.04" height="6.04"/></clipPath><clipPath id="clip-path-3"><rect class="cls-1" x="76.98" y="57.64" width="6.04" height="6.04"/></clipPath></defs><title>vault</title><g id="Vault"><g class="cls-2"><line class="cls-3" x1="31.54" y1="57.88" x2="151.15" y2="125.74"/><line class="cls-3" x1="34.35" y1="55.08" x2="152.68" y2="122.21"/><line class="cls-3" x1="37.15" y1="52.27" x2="155.28" y2="119.29"/><line class="cls-3" x1="39.95" y1="49.47" x2="156.65" y2="115.68"/><line class="cls-3" x1="42.76" y1="46.66" x2="159.06" y2="112.65"/><line class="cls-3" x1="45.56" y1="43.86" x2="160.9" y2="109.29"/><line class="cls-3" x1="48.37" y1="41.06" x2="162.25" y2="105.66"/><line class="cls-3" x1="51.17" y1="38.25" x2="162.87" y2="101.62"/><line class="cls-3" x1="53.97" y1="35.45" x2="163.45" y2="97.55"/><line class="cls-3" x1="56.78" y1="32.64" x2="163.97" y2="93.46"/></g><rect class="cls-1" x="67.93" y="66.69" width="6.04" height="6.04"/><g class="cls-4"><line class="cls-3" x1="31.54" y1="57.88" x2="151.15" y2="125.74"/><line class="cls-3" x1="34.35" y1="55.08" x2="152.68" y2="122.21"/><line class="cls-3" x1="37.15" y1="52.27" x2="155.28" y2="119.29"/><line class="cls-3" x1="39.95" y1="49.47" x2="156.65" y2="115.68"/><line class="cls-3" x1="42.76" y1="46.66" x2="159.06" y2="112.65"/><line class="cls-3" x1="45.56" y1="43.86" x2="160.9" y2="109.29"/><line class="cls-3" x1="48.37" y1="41.06" x2="162.25" y2="105.66"/><line class="cls-3" x1="51.17" y1="38.25" x2="162.87" y2="101.62"/><line class="cls-3" x1="53.97" y1="35.45" x2="163.45" y2="97.55"/><line class="cls-3" x1="56.78" y1="32.64" x2="163.97" y2="93.46"/></g><rect class="cls-1" x="67.93" y="48.58" width="6.04" height="6.04"/><g class="cls-5"><line class="cls-3" x1="31.54" y1="57.88" x2="151.15" y2="125.74"/><line class="cls-3" x1="34.35" y1="55.08" x2="152.68" y2="122.21"/><line class="cls-3" x1="37.15" y1="52.27" x2="155.28" y2="119.29"/><line class="cls-3" x1="39.95" y1="49.47" x2="156.65" y2="115.68"/><line class="cls-3" x1="42.76" y1="46.66" x2="159.06" y2="112.65"/><line class="cls-3" x1="45.56" y1="43.86" x2="160.9" y2="109.29"/><line class="cls-3" x1="48.37" y1="41.06" x2="162.25" y2="105.66"/><line class="cls-3" x1="51.17" y1="38.25" x2="162.87" y2="101.62"/><line class="cls-3" x1="53.97" y1="35.45" x2="163.45" y2="97.55"/><line class="cls-3" x1="56.78" y1="32.64" x2="163.97" y2="93.46"/></g><rect class="cls-1" x="76.98" y="57.64" width="6.04" height="6.04"/><path class="cls-3" d="M27.94,27.69,79.81,131.81,132.06,27.69ZM86,48.58h6v6H86ZM74,72.73h-6v-6h6Zm0-9.05h-6v-6h6Zm0-9.06h-6v-6h6Zm9,27.16H77v-6h6Zm0-9H77v-6h6Zm0-9.05H77v-6h6Zm0-9.06H77v-6h6Zm3,3h6v6H86ZM86,72.73v-6h6v6Z"/></g></svg>