<svg xmlns="http://www.w3.org/2000/svg" width="160" height="160" viewBox="0 0 160 160">
  <title>consul</title>
  <g>
    <path d="M78,91.59a11.72,11.72,0,1,1,11.7-11.75A11.69,11.69,0,0,1,78,91.59" fill="none" stroke="#000" stroke-miterlimit="10" fill-rule="evenodd"/>
    <path d="M100.82,85.27a5.41,5.41,0,1,1,5.4-5.4,5.39,5.39,0,0,1-5.4,5.4" fill="none" stroke="#000" stroke-miterlimit="10" fill-rule="evenodd"/>
    <path d="M116.77,76.44a5.42,5.42,0,1,1,4-6.5,5.58,5.58,0,0,1,.06,2.11,5.21,5.21,0,0,1-4.07,4.39" fill="none" stroke="#000" stroke-miterlimit="10" fill-rule="evenodd"/>
    <path d="M116.77,94.1a5.42,5.42,0,1,1,4-6.5,5.58,5.58,0,0,1,.06,2.11,5.21,5.21,0,0,1-4.07,4.39" fill="none" stroke="#000" stroke-miterlimit="10" fill-rule="evenodd"/>
    <path d="M131.6,76.21A5.4,5.4,0,1,1,136,70a5.89,5.89,0,0,1,.06,1.39,5.39,5.39,0,0,1-4.5,4.82" fill="none" stroke="#000" stroke-miterlimit="10" fill-rule="evenodd"/>
    <path d="M131.6,94.37A5.4,5.4,0,1,1,136,88.16a5.89,5.89,0,0,1,.06,1.39,5.39,5.39,0,0,1-4.5,4.82" fill="none" stroke="#000" stroke-miterlimit="10" fill-rule="evenodd"/>
    <path d="M127.83,108.49h0a5.47,5.47,0,1,1,.67-2.22,4.93,4.93,0,0,1-.67,2.22" fill="none" stroke="#000" stroke-miterlimit="10" fill-rule="evenodd"/>
    <path d="M125.88,58.82a5.42,5.42,0,1,1,2.06-7.39,5.11,5.11,0,0,1,.67,3.13,5.45,5.45,0,0,1-2.73,4.26" fill="none" stroke="#000" stroke-miterlimit="10" fill-rule="evenodd"/>
    <path d="M78.21,134.33a54.33,54.33,0,1,1,0-108.66,53.81,53.81,0,0,1,33,11.16l-6.64,8.66a43.44,43.44,0,1,0-26.36,77.93,43,43,0,0,0,26.36-8.91l6.63,8.67A53.9,53.9,0,0,1,78.21,134.33Z" fill="none" stroke="#000" stroke-miterlimit="10"/>
    <line x1="66.75" y1="83.25" x2="80.83" y2="91.24" fill="none" stroke="#000" stroke-miterlimit="10"/>
    <line x1="66.4" y1="78.11" x2="85.45" y2="88.92" fill="none" stroke="#000" stroke-miterlimit="10"/>
    <line x1="67.83" y1="74" x2="88.25" y2="85.58" fill="none" stroke="#000" stroke-miterlimit="10"/>
    <line x1="70.69" y1="70.68" x2="89.61" y2="81.42" fill="none" stroke="#000" stroke-miterlimit="10"/>
    <line x1="75.41" y1="68.42" x2="88.99" y2="76.13" fill="none" stroke="#000" stroke-miterlimit="10"/>
  </g>
</svg>
