<?xml version="1.0" encoding="utf-8"?>
<!-- Generator: Adobe Illustrator 22.1.0, SVG Export Plug-In . SVG Version: 6.00 Build 0)  -->
<svg version="1.1" id="Layer_1" xmlns="http://www.w3.org/2000/svg" xmlns:xlink="http://www.w3.org/1999/xlink" x="0px" y="0px"
	 viewBox="0 0 160 30" enable-background="new 0 0 160 30" xml:space="preserve">
<line fill="none" stroke="#000000" stroke-miterlimit="10" x1="1" y1="5.5" x2="1" y2="28.3"/>
<line fill="none" stroke="#000000" stroke-miterlimit="10" x1="14.4" y1="5.5" x2="14.4" y2="28.3"/>
<line fill="none" stroke="#000000" stroke-miterlimit="10" x1="1" y1="16.8" x2="14.4" y2="16.8"/>
<path fill="none" stroke="#000000" stroke-miterlimit="10" d="M30.5,25.9c-1.2,1.6-3.2,2.4-5.2,2.6c-1.7,0.2-3.7,0.2-5.1-0.8
	c-1.4-1.1-1.7-3-1.6-4.6c0.2-2,1.3-3.4,3.3-3.8c1.3-0.2,2.7-0.2,4-0.2c1.5,0,3.1,0,4.6,0"/>
<path fill="none" stroke="#000000" stroke-miterlimit="10" d="M19.1,12.4c3.6-1.1,10.2-1.8,11.1,3.1c0.2,1.1,0.2,2.5,0.2,3.6
	c0,1.8,0,3.6,0,5.4c0,1.3,0,2.5,0,3.8"/>
<path fill="none" stroke="#000000" stroke-miterlimit="10" d="M34.2,27.7c1.8,0.6,3.9,0.9,5.9,0.9c1.6,0,3.4-0.1,4.7-1.1
	c1-0.8,1.3-1.9,1.4-3.1c0.1-1.1,0.1-2.3-0.8-3.1c-0.7-0.7-1.7-1-2.7-1.1c-2.1-0.4-4.6,0-6.7-0.8c-2.1-0.8-2.2-3.7-1.3-5.5
	c0.7-1.4,2.2-1.8,3.7-2.1c2.4-0.3,5.1-0.2,7.4,0.5"/>
<line fill="none" stroke="#000000" stroke-miterlimit="10" x1="49.8" y1="28.3" x2="49.8" y2="5.2"/>
<path fill="none" stroke="#000000" stroke-miterlimit="10" d="M49.8,14.7c2-1.3,4.4-2.2,6.7-2.6c2.1-0.3,4.4-0.2,6.1,1.1
	c1.3,1.1,1.5,2.8,1.5,4.4c0,1.9,0,3.8,0,5.7c0,1.6,0,3.2,0,4.9"/>
<line fill="none" stroke="#000000" stroke-miterlimit="10" x1="68.2" y1="11.9" x2="68.2" y2="28.3"/>
<line fill="none" stroke="#000000" stroke-miterlimit="10" x1="68.2" y1="5.5" x2="68.2" y2="8.8"/>
<path id="Fill-3_1_" fill="none" stroke="#000000" stroke-miterlimit="10" d="M86.3,28.4c-2.3,0.5-4.7,0.7-7,0.5
	c-1.6-0.2-3.4-0.5-4.7-1.5c-1.8-1.5-2-3.9-2-6.1c0-2.6,0-5.1,0-7.7c0-2.1-0.2-4.4,1.2-6.2c1.1-1.4,2.9-2,4.7-2.2
	C81,4.8,83.8,5,86.2,5.5"/>
<path id="Fill-4" fill="none" stroke="#000000" stroke-miterlimit="10" d="M95.7,29.3c-2.1,0-4.3-0.5-5.6-2.4
	c-0.8-1.2-1.1-2.8-1.1-4.2c0-1.5,0-2.9,0-4.4c0-1.4,0.1-2.8,0.8-4.1c1-1.8,3-2.7,5-2.8c2.1-0.2,4.5,0.2,6.1,1.8
	c2.1,2.2,1.5,5.9,1.5,8.7c0,1.6,0,3.1-0.8,4.6C100.4,28.6,98,29.3,95.7,29.3z"/>
<path id="Fill-5_3_" fill="none" stroke="#000000" stroke-miterlimit="10" d="M105.6,14c2.5-1.1,4.6-2.4,7.4-2.6
	c1.4-0.2,3.1-0.2,4.2,0.7c0.8,0.8,1.1,2,1.1,3.1c0.1,3.2,0,6.4,0,9.7c0,1.4,0,2.7,0,4.1"/>
<path id="Fill-5_2_" fill="none" stroke="#000000" stroke-miterlimit="10" d="M105.6,29V11"/>
<path id="Fill-6_2_" fill="none" stroke="#000000" stroke-miterlimit="10" d="M124.3,28.6c0-3.4,0-6.7,0-10.2s-0.1-7,0-10.4
	c0-1.6,0.6-3.1,2.1-3.7c1.8-0.8,4.1-0.5,5.9,0.1"/>
<path id="Fill-6_3_" fill="none" stroke="#000000" stroke-miterlimit="10" d="M120.3,11.6h8"/>
<polyline id="Fill-8_1_" fill="none" stroke="#000000" stroke-miterlimit="10" points="139.7,6.1 145.6,1.5 145.6,19.9 "/>
<circle fill="none" stroke="#000000" stroke-miterlimit="10" cx="154.5" cy="5.3" r="4.6"/>
<circle fill="none" stroke="#000000" stroke-miterlimit="10" cx="154.5" cy="15" r="4.6"/>
</svg>
