<?xml version="1.0" encoding="utf-8"?>
<!-- Generator: Adobe Illustrator 22.1.0, SVG Export Plug-In . SVG Version: 6.00 Build 0)  -->
<svg version="1.1" id="Layer_1" xmlns="http://www.w3.org/2000/svg" xmlns:xlink="http://www.w3.org/1999/xlink" x="0px" y="0px"
	 viewBox="0 0 200 38" enable-background="new 0 0 200 38" xml:space="preserve">
<g>
	<line fill="none" stroke="#000000" stroke-miterlimit="10" x1="2.5" y1="7" x2="2.5" y2="36.7"/>
	<line fill="none" stroke="#000000" stroke-miterlimit="10" x1="20" y1="7" x2="20" y2="36.7"/>
	<line fill="none" stroke="#000000" stroke-miterlimit="10" x1="2.5" y1="21.7" x2="20" y2="21.7"/>

	<path fill="none" stroke="#000000" stroke-miterlimit="10" d="M41,33.6c-1.6,2.1-4.2,3.1-6.8,3.4c-2.2,0.3-4.8,0.3-6.6-1.1
		c-1.8-1.4-2.2-3.9-2.1-6c0.2-2.6,1.7-4.5,4.3-5c1.7-0.3,3.5-0.2,5.2-0.2c2,0,4,0,6,0"/>
	<path fill="none" stroke="#000000" stroke-miterlimit="10" d="M26.2,15.9c4.7-1.4,13.3-2.4,14.5,4.1c0.3,1.5,0.2,3.2,0.2,4.7
		c0,2.3,0,4.7,0,7c0,1.7,0,3.3,0,5"/>

	<path fill="none" stroke="#000000" stroke-miterlimit="10" d="M45.9,35.9c2.4,0.8,5.1,1.2,7.7,1.2c2.1,0,4.5-0.1,6.2-1.5
		c1.3-1,1.7-2.5,1.8-4c0.1-1.4,0.1-3-1-4.1c-0.9-0.9-2.2-1.3-3.5-1.5c-2.8-0.5-6,0-8.7-1.1c-2.8-1.1-2.9-4.8-1.7-7.2
		c0.9-1.8,2.9-2.4,4.8-2.7c3.1-0.4,6.6-0.2,9.6,0.6"/>

	<line fill="none" stroke="#000000" stroke-miterlimit="10" x1="64.9" y1="36.7" x2="64.9" y2="6.6"/>
	<path fill="none" stroke="#000000" stroke-miterlimit="10" d="M64.9,19c2.6-1.7,5.7-2.9,8.8-3.4c2.7-0.4,5.8-0.3,8,1.5
		c1.7,1.5,2,3.7,2,5.8c0,2.5,0,4.9,0,7.4c0,2.1,0,4.2,0,6.4"/>

	<line fill="none" stroke="#000000" stroke-miterlimit="10" x1="87.7" y1="15.3" x2="87.7" y2="36.7"/>
	<line fill="none" stroke="#000000" stroke-miterlimit="10" x1="87.7" y1="7" x2="87.7" y2="11.3"/>

	<path id="Fill-3_1_" fill="none" stroke="#000000" stroke-miterlimit="10" d="M110,36.9c-3,0.6-6.1,0.9-9.2,0.6
		c-2.1-0.2-4.4-0.6-6.1-2c-2.4-2-2.6-5.1-2.6-8c0-3.4,0-6.7,0-10.1c0-2.8-0.2-5.8,1.6-8.1c1.5-1.8,3.8-2.6,6.1-2.9
		c3.3-0.4,6.9-0.1,10.1,0.5"/>
	<path id="Fill-4" fill="none" stroke="#000000" stroke-miterlimit="10" d="M122.2,38c-2.7,0-5.6-0.7-7.3-3.1
		c-1.1-1.6-1.4-3.6-1.4-5.5c0-1.9,0-3.8,0-5.8c0-1.8,0.1-3.7,1-5.3c1.3-2.4,3.9-3.5,6.5-3.7c2.8-0.2,5.9,0.2,7.9,2.3
		c2.7,2.9,2,7.7,2,11.3c0,2.1,0,4.1-1,6C128.4,37.1,125.3,38,122.2,38z"/>
	<path id="Fill-5_3_" fill="none" stroke="#000000" stroke-miterlimit="10" d="M135.2,18.1c3.2-1.5,6-3.1,9.6-3.4
		c1.8-0.2,4-0.3,5.5,0.9c1.1,1,1.4,2.6,1.4,4c0.1,4.2,0,8.4,0,12.6c0,1.8,0,3.5,0,5.3"/>
	<path id="Fill-5_2_" fill="none" stroke="#000000" stroke-miterlimit="10" d="M135.2,37.6l0-23.5"/>
	<path id="Fill-6_2_" fill="none" stroke="#000000" stroke-miterlimit="10" d="M159.6,37.1c0-4.4,0-8.8,0-13.3c0-4.5-0.1-9.1,0-13.6
		c0-2.1,0.8-4,2.8-4.8c2.3-1,5.3-0.6,7.7,0.1"/>
	<path id="Fill-6_3_" fill="none" stroke="#000000" stroke-miterlimit="10" d="M154.4,14.9h10.5"/>
	<polyline id="Fill-7_2_" fill="none" stroke="#000000" stroke-miterlimit="10" points="177.8,4.9 177.8,2.5 178.8,0.7 	"/>
	<polyline id="Fill-8_1_" fill="none" stroke="#000000" stroke-miterlimit="10" points="181,4.6 185.3,1.3 185.3,14.6 	"/>
	<circle fill="none" stroke="#000000" stroke-miterlimit="10" cx="191.7" cy="4" r="3.3"/>
	<circle fill="none" stroke="#000000" stroke-miterlimit="10" cx="191.7" cy="11" r="3.3"/>
</g>
</svg>
