<svg xmlns="http://www.w3.org/2000/svg" width="160" height="160" viewBox="0 0 160 160">
  <title>vagrant</title>
  <g>
    <polyline points="138.69 28.66 112.01 44.18 112.01 53.55 90.53 101.55 80 107.81 80 140.68" fill="none" stroke="#000" stroke-miterlimit="10"/>
    <polygon points="80 82.95 63.99 45.6 63.99 35.04 63.88 34.98 47.98 44.18 47.98 53.55 69.33 101.63 80 96.35 80 82.95" fill="none" stroke="#000" stroke-miterlimit="10"/>
    <polyline points="80 82.95 63.99 45.6 64 34.95 37.31 19.32 21.3 28.66 21.3 40.1 57.33 127.6 80 140.68 102.87 127.49 138.69 39.77 138.7 28.66 122.69 19.32 96 34.95 96 34.95 96 34.95 96 45.6 80 82.95" fill="none" stroke="#000" stroke-miterlimit="10"/>
    <line x1="79.99" y1="136.43" x2="83.71" y2="138.54" fill="none" stroke="#000" stroke-miterlimit="10"/>
    <line x1="79.99" y1="131.49" x2="88.03" y2="136.05" fill="none" stroke="#000" stroke-miterlimit="10"/>
    <line x1="80" y1="126.55" x2="92.35" y2="133.56" fill="none" stroke="#000" stroke-miterlimit="10"/>
    <line x1="80" y1="121.61" x2="96.68" y2="131.07" fill="none" stroke="#000" stroke-miterlimit="10"/>
    <line x1="79.99" y1="116.66" x2="101" y2="128.57" fill="none" stroke="#000" stroke-miterlimit="10"/>
    <line x1="80" y1="111.72" x2="103.8" y2="125.22" fill="none" stroke="#000" stroke-miterlimit="10"/>
    <line x1="80.89" y1="107.28" x2="105.44" y2="121.21" fill="none" stroke="#000" stroke-miterlimit="10"/>
    <line x1="68.72" y1="100.38" x2="70.18" y2="101.2" fill="none" stroke="#000" stroke-miterlimit="10"/>
    <line x1="85.14" y1="104.75" x2="107.08" y2="117.2" fill="none" stroke="#000" stroke-miterlimit="10"/>
    <line x1="65.86" y1="93.81" x2="74.83" y2="98.9" fill="none" stroke="#000" stroke-miterlimit="10"/>
    <line x1="89.4" y1="102.22" x2="108.71" y2="113.18" fill="none" stroke="#000" stroke-miterlimit="10"/>
    <line x1="62.92" y1="87.2" x2="79.49" y2="96.6" fill="none" stroke="#000" stroke-miterlimit="10"/>
    <line x1="91.82" y1="98.66" x2="110.35" y2="109.17" fill="none" stroke="#000" stroke-miterlimit="10"/>
    <line x1="59.99" y1="80.6" x2="80" y2="91.95" fill="none" stroke="#000" stroke-miterlimit="10"/>
    <line x1="93.59" y1="94.72" x2="112.08" y2="105.21" fill="none" stroke="#000" stroke-miterlimit="10"/>
    <line x1="57.06" y1="73.99" x2="79.99" y2="87.01" fill="none" stroke="#000" stroke-miterlimit="10"/>
    <line x1="95.35" y1="90.78" x2="113.63" y2="101.14" fill="none" stroke="#000" stroke-miterlimit="10"/>
    <line x1="54.12" y1="67.38" x2="79.99" y2="82.06" fill="none" stroke="#000" stroke-miterlimit="10"/>
    <line x1="97.12" y1="86.83" x2="115.27" y2="97.13" fill="none" stroke="#000" stroke-miterlimit="10"/>
    <line x1="51.19" y1="60.78" x2="76.69" y2="75.25" fill="none" stroke="#000" stroke-miterlimit="10"/>
    <line x1="98.88" y1="82.89" x2="116.91" y2="93.12" fill="none" stroke="#000" stroke-miterlimit="10"/>
    <line x1="48.26" y1="54.17" x2="73.9" y2="68.72" fill="none" stroke="#000" stroke-miterlimit="10"/>
    <line x1="100.65" y1="78.95" x2="118.55" y2="89.11" fill="none" stroke="#000" stroke-miterlimit="10"/>
    <line x1="47.98" y1="49.07" x2="71.1" y2="62.19" fill="none" stroke="#000" stroke-miterlimit="10"/>
    <line x1="102.41" y1="75.01" x2="120.18" y2="85.09" fill="none" stroke="#000" stroke-miterlimit="10"/>
    <line x1="47.98" y1="44.13" x2="68.3" y2="55.66" fill="none" stroke="#000" stroke-miterlimit="10"/>
    <line x1="104.1" y1="71.03" x2="121.82" y2="81.08" fill="none" stroke="#000" stroke-miterlimit="10"/>
    <line x1="52.34" y1="41.66" x2="65.5" y2="49.13" fill="none" stroke="#000" stroke-miterlimit="10"/>
    <line x1="105.94" y1="67.13" x2="123.46" y2="77.07" fill="none" stroke="#000" stroke-miterlimit="10"/>
    <line x1="56.65" y1="39.16" x2="63.99" y2="43.33" fill="none" stroke="#000" stroke-miterlimit="10"/>
    <line x1="107.7" y1="63.18" x2="125.1" y2="73.05" fill="none" stroke="#000" stroke-miterlimit="10"/>
    <line x1="60.96" y1="36.67" x2="63.99" y2="38.39" fill="none" stroke="#000" stroke-miterlimit="10"/>
    <line x1="109.47" y1="59.24" x2="126.74" y2="69.04" fill="none" stroke="#000" stroke-miterlimit="10"/>
    <line x1="111.23" y1="55.3" x2="128.38" y2="65.03" fill="none" stroke="#000" stroke-miterlimit="10"/>
    <line x1="112.03" y1="50.81" x2="130.02" y2="61.02" fill="none" stroke="#000" stroke-miterlimit="10"/>
    <line x1="112.03" y1="45.87" x2="131.65" y2="57" fill="none" stroke="#000" stroke-miterlimit="10"/>
    <line x1="114.85" y1="42.53" x2="133.29" y2="52.99" fill="none" stroke="#000" stroke-miterlimit="10"/>
    <line x1="119.15" y1="40.02" x2="134.93" y2="48.98" fill="none" stroke="#000" stroke-miterlimit="10"/>
    <line x1="123.45" y1="37.52" x2="136.57" y2="44.96" fill="none" stroke="#000" stroke-miterlimit="10"/>
    <line x1="127.75" y1="35.02" x2="138.21" y2="40.95" fill="none" stroke="#000" stroke-miterlimit="10"/>
    <line x1="132.05" y1="32.52" x2="138.69" y2="36.28" fill="none" stroke="#000" stroke-miterlimit="10"/>
    <line x1="136.35" y1="30.01" x2="138.7" y2="31.34" fill="none" stroke="#000" stroke-miterlimit="10"/>
  </g>
</svg>
