<svg xmlns="http://www.w3.org/2000/svg" width="160" height="160" viewBox="0 0 160 160">
  <title>vault</title>
  <path d="M18.33,18.33,79.78,141.67,141.67,18.33ZM87.09,43.09h7.15v7.15H87.09ZM72.85,71.68H65.7V64.53h7.15Zm0-10.72H65.7V53.81h7.15Zm0-10.72H65.7V43.09h7.15ZM83.57,82.41H76.42V75.26h7.15Zm0-10.73H76.42V64.53h7.15Zm0-10.72H76.42V53.81h7.15Zm0-10.72H76.42V43.09h7.15Zm3.52,3.57h7.15V61H87.09Zm.06,17.87V64.53H94.3v7.15Zm-21.45-3,5.33,3m-3.82-7.15,5.64,3.2M65.7,47.28l5.33,3m-3.82-7.15,5.64,3.2m3.57,11.59,5.34,3m-3.82-7.15L83.58,57" fill="none" stroke="#000" stroke-miterlimit="10"/>
</svg>
