<?xml version="1.0" encoding="utf-8"?>
<!-- Generator: Adobe Illustrator 22.1.0, SVG Export Plug-In . SVG Version: 6.00 Build 0)  -->
<svg version="1.1" id="Layer_1" xmlns="http://www.w3.org/2000/svg" xmlns:xlink="http://www.w3.org/1999/xlink" x="0px" y="0px"
	 viewBox="0 0 135 135.4" style="enable-background:new 0 0 135 135.4;" xml:space="preserve">
<style type="text/css">
	.st0{fill:none;stroke:#231F20;stroke-width:0.5;stroke-miterlimit:10;}
</style>
<title>hashicorp</title>
<g>
	<polygon class="st0" points="57.5,4.3 7.6,33.1 7.6,33.1 7.6,102.2 26.4,113.1 26.4,43.9 57.5,25.9 	"/>
	<polygon class="st0" points="77.5,4.3 77.5,59.4 57.5,59.4 57.5,38.8 38.8,49.6 38.8,120.2 57.5,131 57.5,76.1 77.5,76.1 
		77.5,96.5 96.2,85.7 96.2,15.1 	"/>
	<polygon class="st0" points="77.5,131.1 127.4,102.3 127.4,102.2 127.4,33.1 108.6,22.3 108.6,91.4 77.5,109.4 	"/>
	<line class="st0" x1="38.8" y1="116" x2="57.5" y2="126.8"/>
	<line class="st0" x1="7.6" y1="98.1" x2="26.5" y2="108.9"/>
	<line class="st0" x1="38.8" y1="111" x2="57.5" y2="121.8"/>
	<line class="st0" x1="7.6" y1="93.1" x2="26.4" y2="103.9"/>
	<line class="st0" x1="77.5" y1="128.3" x2="79.9" y2="129.7"/>
	<line class="st0" x1="38.8" y1="106.1" x2="57.5" y2="116.8"/>
	<line class="st0" x1="7.6" y1="88.2" x2="26.5" y2="99"/>
	<line class="st0" x1="77.5" y1="123.3" x2="84.2" y2="127.2"/>
	<line class="st0" x1="38.8" y1="101.1" x2="57.5" y2="111.9"/>
	<line class="st0" x1="7.6" y1="83.2" x2="26.5" y2="94"/>
	<line class="st0" x1="77.5" y1="118.4" x2="88.5" y2="124.7"/>
	<line class="st0" x1="38.8" y1="96.1" x2="57.5" y2="106.9"/>
	<line class="st0" x1="7.6" y1="78.2" x2="26.5" y2="89.1"/>
	<line class="st0" x1="77.5" y1="113.4" x2="92.8" y2="122.2"/>
	<line class="st0" x1="38.8" y1="91.2" x2="57.5" y2="102"/>
	<line class="st0" x1="7.6" y1="73.3" x2="26.4" y2="84.1"/>
	<line class="st0" x1="78.3" y1="108.9" x2="97.1" y2="119.7"/>
	<line class="st0" x1="38.8" y1="86.2" x2="57.5" y2="97"/>
	<line class="st0" x1="7.6" y1="68.3" x2="26.4" y2="79.1"/>
	<line class="st0" x1="82.6" y1="106.5" x2="101.4" y2="117.2"/>
	<line class="st0" x1="38.8" y1="81.3" x2="57.5" y2="92"/>
	<line class="st0" x1="7.6" y1="63.4" x2="26.4" y2="74.1"/>
	<line class="st0" x1="86.9" y1="104" x2="105.7" y2="114.8"/>
	<line class="st0" x1="38.8" y1="76.3" x2="57.5" y2="87.1"/>
	<line class="st0" x1="7.6" y1="58.4" x2="26.4" y2="69.2"/>
	<line class="st0" x1="91.3" y1="101.5" x2="110" y2="112.3"/>
	<line class="st0" x1="77.5" y1="93.6" x2="80" y2="95.1"/>
	<line class="st0" x1="38.8" y1="71.3" x2="57.5" y2="82.1"/>
	<line class="st0" x1="7.6" y1="53.5" x2="26.4" y2="64.2"/>
	<line class="st0" x1="95.5" y1="99" x2="114.3" y2="109.8"/>
	<line class="st0" x1="77.5" y1="88.6" x2="84.3" y2="92.6"/>
	<line class="st0" x1="38.8" y1="66.4" x2="57.5" y2="77.2"/>
	<line class="st0" x1="7.6" y1="48.5" x2="26.4" y2="59.3"/>
	<line class="st0" x1="99.8" y1="96.5" x2="118.6" y2="107.3"/>
	<line class="st0" x1="77.5" y1="83.7" x2="88.6" y2="90.1"/>
	<line class="st0" x1="38.8" y1="61.4" x2="64.3" y2="76.1"/>
	<line class="st0" x1="7.6" y1="43.5" x2="26.4" y2="54.3"/>
	<line class="st0" x1="104.1" y1="94" x2="122.9" y2="104.8"/>
	<line class="st0" x1="77.5" y1="78.7" x2="92.9" y2="87.6"/>
	<line class="st0" x1="38.8" y1="56.5" x2="73" y2="76.1"/>
	<line class="st0" x1="7.6" y1="38.6" x2="26.4" y2="49.4"/>
	<line class="st0" x1="108.4" y1="91.6" x2="127.2" y2="102.3"/>
	<line class="st0" x1="38.8" y1="51.5" x2="96.2" y2="84.5"/>
	<line class="st0" x1="7.6" y1="33.6" x2="26.4" y2="44.4"/>
	<line class="st0" x1="108.6" y1="86.7" x2="127.4" y2="97.5"/>
	<line class="st0" x1="61.1" y1="59.4" x2="96.2" y2="79.6"/>
	<line class="st0" x1="41.5" y1="48.1" x2="57.5" y2="57.3"/>
	<line class="st0" x1="11.5" y1="30.9" x2="30.3" y2="41.7"/>
	<line class="st0" x1="108.6" y1="81.7" x2="127.4" y2="92.5"/>
	<line class="st0" x1="69.7" y1="59.4" x2="96.2" y2="74.6"/>
	<line class="st0" x1="45.8" y1="45.6" x2="57.5" y2="52.4"/>
	<line class="st0" x1="15.8" y1="28.4" x2="34.6" y2="39.2"/>
	<line class="st0" x1="108.6" y1="76.8" x2="127.4" y2="87.6"/>
	<line class="st0" x1="77.5" y1="58.9" x2="96.2" y2="69.7"/>
	<line class="st0" x1="50.1" y1="43.1" x2="57.5" y2="47.4"/>
	<line class="st0" x1="20.1" y1="25.9" x2="38.9" y2="36.7"/>
	<line class="st0" x1="108.6" y1="71.8" x2="127.4" y2="82.6"/>
	<line class="st0" x1="77.5" y1="53.9" x2="96.2" y2="64.7"/>
	<line class="st0" x1="54.4" y1="40.6" x2="57.5" y2="42.5"/>
	<line class="st0" x1="24.4" y1="23.4" x2="43.2" y2="34.2"/>
	<line class="st0" x1="108.6" y1="66.9" x2="127.4" y2="77.6"/>
	<line class="st0" x1="77.5" y1="49" x2="96.2" y2="59.7"/>
	<line class="st0" x1="28.7" y1="20.9" x2="47.5" y2="31.7"/>
	<line class="st0" x1="108.6" y1="61.9" x2="127.4" y2="72.7"/>
	<line class="st0" x1="77.5" y1="44" x2="96.2" y2="54.8"/>
	<line class="st0" x1="33" y1="18.5" x2="51.8" y2="29.2"/>
	<line class="st0" x1="108.6" y1="56.9" x2="127.4" y2="67.7"/>
	<line class="st0" x1="77.5" y1="39" x2="96.2" y2="49.8"/>
	<line class="st0" x1="37.3" y1="16" x2="56.1" y2="26.8"/>
	<line class="st0" x1="108.6" y1="52" x2="127.4" y2="62.8"/>
	<line class="st0" x1="77.5" y1="34.1" x2="96.2" y2="44.9"/>
	<line class="st0" x1="41.6" y1="13.5" x2="57.5" y2="22.6"/>
	<line class="st0" x1="108.6" y1="47" x2="127.4" y2="57.8"/>
	<line class="st0" x1="77.5" y1="29.1" x2="96.2" y2="39.9"/>
	<line class="st0" x1="45.9" y1="11" x2="57.5" y2="17.7"/>
	<line class="st0" x1="108.6" y1="42.1" x2="127.4" y2="52.8"/>
	<line class="st0" x1="77.5" y1="24.2" x2="96.2" y2="34.9"/>
	<line class="st0" x1="50.2" y1="8.5" x2="57.5" y2="12.7"/>
	<line class="st0" x1="108.6" y1="37.1" x2="127.4" y2="47.9"/>
	<line class="st0" x1="77.5" y1="19.2" x2="96.2" y2="30"/>
	<line class="st0" x1="54.5" y1="6" x2="57.5" y2="7.8"/>
	<line class="st0" x1="108.6" y1="32.2" x2="127.4" y2="42.9"/>
	<line class="st0" x1="77.5" y1="14.2" x2="96.2" y2="25"/>
	<line class="st0" x1="108.6" y1="27.2" x2="127.4" y2="38"/>
	<line class="st0" x1="77.5" y1="9.3" x2="96.2" y2="20.1"/>
</g>
</svg>
