<svg xmlns="http://www.w3.org/2000/svg" width="160" height="160" viewBox="0 0 160 160">
  <title>packer</title>
  <g>
    <polygon points="41.84 32.84 82.3 56.22 82.3 142.41 41.84 119.04 41.84 32.84" fill="none" stroke="#000" stroke-miterlimit="10" fill-rule="evenodd"/>
    <path d="M102.33,42.92l-44-25.33V35.18l29.9,17.26v52.78l14.08,8.08c8.7,5,15.83,2,15.83-6.69V67.89C118.16,59.18,111,47.94,102.33,42.92Z" fill="none" stroke="#000" stroke-miterlimit="10"/>
    <line x1="88.25" y1="101" x2="113.28" y2="115.2" fill="none" stroke="#000" stroke-miterlimit="10"/>
    <line x1="88.25" y1="95.92" x2="116.85" y2="112.14" fill="none" stroke="#000" stroke-miterlimit="10"/>
    <line x1="88.25" y1="90.84" x2="118.11" y2="107.78" fill="none" stroke="#000" stroke-miterlimit="10"/>
    <line x1="88.25" y1="85.76" x2="118.16" y2="102.72" fill="none" stroke="#000" stroke-miterlimit="10"/>
    <line x1="88.25" y1="80.68" x2="118.16" y2="97.64" fill="none" stroke="#000" stroke-miterlimit="10"/>
    <line x1="88.25" y1="75.59" x2="118.16" y2="92.56" fill="none" stroke="#000" stroke-miterlimit="10"/>
    <line x1="88.25" y1="70.51" x2="118.16" y2="87.48" fill="none" stroke="#000" stroke-miterlimit="10"/>
    <line x1="88.25" y1="65.43" x2="118.16" y2="82.4" fill="none" stroke="#000" stroke-miterlimit="10"/>
    <line x1="88.25" y1="60.35" x2="118.16" y2="77.32" fill="none" stroke="#000" stroke-miterlimit="10"/>
    <line x1="88.25" y1="55.27" x2="118.16" y2="72.24" fill="none" stroke="#000" stroke-miterlimit="10"/>
    <line x1="58.24" y1="32.58" x2="118.16" y2="67.15" fill="none" stroke="#000" stroke-miterlimit="10"/>
    <line x1="58.55" y1="27.82" x2="117.05" y2="61.44" fill="none" stroke="#000" stroke-miterlimit="10"/>
    <line x1="58.47" y1="22.79" x2="114.05" y2="54.66" fill="none" stroke="#000" stroke-miterlimit="10"/>
  </g>
</svg>
