<svg xmlns="http://www.w3.org/2000/svg" xmlns:xlink="http://www.w3.org/1999/xlink" width="160" height="160" viewBox="0 0 160 160">
  <defs>
    <clipPath id="clip-path">
      <polygon points="96.51 60.72 96.51 96.92 127.87 78.82 127.87 42.61 96.51 60.72" style="fill: none;stroke: #000;stroke-miterlimit: 10;opacity: 0.7000000000000001;clip-rule: evenodd"/>
    </clipPath>
  </defs>
  <title>terraform</title>
  <g id="Terraform">
    <g>
      <g>
        <g style="clip-path: url(#clip-path)">
          <g>
            <line x1="-267.05" y1="-36.67" x2="298.59" y2="284.23" style="fill: none;stroke: #000;stroke-miterlimit: 10"/>
            <line x1="-267.05" y1="-40.78" x2="298.59" y2="280.12" style="fill: none;stroke: #000;stroke-miterlimit: 10"/>
            <line x1="-267.05" y1="-44.89" x2="298.59" y2="276.01" style="fill: none;stroke: #000;stroke-miterlimit: 10"/>
            <line x1="-267.05" y1="-49" x2="298.59" y2="271.9" style="fill: none;stroke: #000;stroke-miterlimit: 10"/>
            <line x1="-267.05" y1="-53.1" x2="298.59" y2="267.79" style="fill: none;stroke: #000;stroke-miterlimit: 10"/>
            <line x1="-267.05" y1="-57.21" x2="298.59" y2="263.68" style="fill: none;stroke: #000;stroke-miterlimit: 10"/>
            <line x1="-267.05" y1="-61.32" x2="298.59" y2="259.57" style="fill: none;stroke: #000;stroke-miterlimit: 10"/>
            <line x1="-267.05" y1="-65.43" x2="298.59" y2="255.47" style="fill: none;stroke: #000;stroke-miterlimit: 10"/>
            <line x1="-267.05" y1="-69.54" x2="298.59" y2="251.36" style="fill: none;stroke: #000;stroke-miterlimit: 10"/>
            <line x1="-267.05" y1="-73.65" x2="298.59" y2="247.25" style="fill: none;stroke: #000;stroke-miterlimit: 10"/>
            <line x1="-267.05" y1="-77.76" x2="298.59" y2="243.14" style="fill: none;stroke: #000;stroke-miterlimit: 10"/>
            <line x1="-267.05" y1="-81.86" x2="298.59" y2="239.03" style="fill: none;stroke: #000;stroke-miterlimit: 10"/>
            <line x1="-267.05" y1="-85.97" x2="298.59" y2="234.92" style="fill: none;stroke: #000;stroke-miterlimit: 10"/>
            <line x1="-267.05" y1="-90.08" x2="298.59" y2="230.81" style="fill: none;stroke: #000;stroke-miterlimit: 10"/>
            <line x1="-267.05" y1="-94.19" x2="298.59" y2="226.71" style="fill: none;stroke: #000;stroke-miterlimit: 10"/>
            <line x1="-267.05" y1="-98.3" x2="298.59" y2="222.6" style="fill: none;stroke: #000;stroke-miterlimit: 10"/>
            <line x1="-267.05" y1="-102.41" x2="298.59" y2="218.49" style="fill: none;stroke: #000;stroke-miterlimit: 10"/>
            <line x1="-267.05" y1="-106.52" x2="298.59" y2="214.38" style="fill: none;stroke: #000;stroke-miterlimit: 10"/>
            <line x1="-267.05" y1="-110.62" x2="298.59" y2="210.27" style="fill: none;stroke: #000;stroke-miterlimit: 10"/>
            <line x1="-267.05" y1="-114.73" x2="298.59" y2="206.16" style="fill: none;stroke: #000;stroke-miterlimit: 10"/>
            <line x1="-267.05" y1="-118.84" x2="298.59" y2="202.05" style="fill: none;stroke: #000;stroke-miterlimit: 10"/>
            <line x1="-267.05" y1="-122.95" x2="298.59" y2="197.95" style="fill: none;stroke: #000;stroke-miterlimit: 10"/>
            <line x1="-267.05" y1="-127.06" x2="298.59" y2="193.84" style="fill: none;stroke: #000;stroke-miterlimit: 10"/>
            <line x1="-267.05" y1="-131.17" x2="298.59" y2="189.73" style="fill: none;stroke: #000;stroke-miterlimit: 10"/>
            <line x1="-267.05" y1="-135.28" x2="298.59" y2="185.62" style="fill: none;stroke: #000;stroke-miterlimit: 10"/>
            <line x1="-267.05" y1="-139.38" x2="298.59" y2="181.51" style="fill: none;stroke: #000;stroke-miterlimit: 10"/>
            <line x1="-267.05" y1="-143.49" x2="298.59" y2="177.4" style="fill: none;stroke: #000;stroke-miterlimit: 10"/>
            <line x1="-267.05" y1="-147.6" x2="298.59" y2="173.29" style="fill: none;stroke: #000;stroke-miterlimit: 10"/>
            <line x1="-267.05" y1="-151.71" x2="298.59" y2="169.19" style="fill: none;stroke: #000;stroke-miterlimit: 10"/>
            <line x1="-267.05" y1="-155.82" x2="298.59" y2="165.08" style="fill: none;stroke: #000;stroke-miterlimit: 10"/>
            <line x1="-267.05" y1="-159.93" x2="298.59" y2="160.97" style="fill: none;stroke: #000;stroke-miterlimit: 10"/>
            <line x1="-267.05" y1="-164.04" x2="298.59" y2="156.86" style="fill: none;stroke: #000;stroke-miterlimit: 10"/>
            <line x1="-267.05" y1="-168.15" x2="298.59" y2="152.75" style="fill: none;stroke: #000;stroke-miterlimit: 10"/>
            <line x1="-267.05" y1="-172.25" x2="298.59" y2="148.64" style="fill: none;stroke: #000;stroke-miterlimit: 10"/>
            <line x1="-264.24" y1="-175.06" x2="301.39" y2="145.84" style="fill: none;stroke: #000;stroke-miterlimit: 10"/>
            <line x1="-261.44" y1="-177.86" x2="304.2" y2="143.03" style="fill: none;stroke: #000;stroke-miterlimit: 10"/>
            <line x1="-258.63" y1="-180.67" x2="307" y2="140.23" style="fill: none;stroke: #000;stroke-miterlimit: 10"/>
            <line x1="-255.83" y1="-183.47" x2="309.8" y2="137.43" style="fill: none;stroke: #000;stroke-miterlimit: 10"/>
            <line x1="-253.03" y1="-186.27" x2="312.61" y2="134.62" style="fill: none;stroke: #000;stroke-miterlimit: 10"/>
            <line x1="-250.22" y1="-189.08" x2="315.41" y2="131.82" style="fill: none;stroke: #000;stroke-miterlimit: 10"/>
            <line x1="-247.42" y1="-191.88" x2="318.22" y2="129.01" style="fill: none;stroke: #000;stroke-miterlimit: 10"/>
            <line x1="-244.61" y1="-194.69" x2="321.02" y2="126.21" style="fill: none;stroke: #000;stroke-miterlimit: 10"/>
            <line x1="-241.81" y1="-197.49" x2="323.82" y2="123.4" style="fill: none;stroke: #000;stroke-miterlimit: 10"/>
            <line x1="-239.01" y1="-200.3" x2="326.63" y2="120.6" style="fill: none;stroke: #000;stroke-miterlimit: 10"/>
            <line x1="-236.2" y1="-203.1" x2="329.43" y2="117.8" style="fill: none;stroke: #000;stroke-miterlimit: 10"/>
            <line x1="-233.4" y1="-205.9" x2="332.24" y2="114.99" style="fill: none;stroke: #000;stroke-miterlimit: 10"/>
          </g>
        </g>
        <polygon points="96.51 60.72 96.51 96.92 127.87 78.82 127.87 42.61 96.51 60.72" style="fill: none;stroke: #000;stroke-miterlimit: 10;fill-rule: evenodd;opacity: 0.7000000000000001"/>
      </g>
      <polygon points="61.72 42.61 93.08 60.71 93.08 96.92 61.72 78.82 61.72 42.61" style="fill: none;stroke: #000;stroke-miterlimit: 10;fill-rule: evenodd"/>
      <polygon points="26.93 22.4 26.93 58.6 58.28 76.71 58.28 40.5 26.93 22.4" style="fill: none;stroke: #000;stroke-miterlimit: 10;fill-rule: evenodd"/>
      <polygon points="61.72 118.99 93.08 137.1 93.08 101.13 93.08 100.89 61.72 82.79 61.72 118.99" style="fill: none;stroke: #000;stroke-miterlimit: 10;fill-rule: evenodd"/>
      <polygon points="96.51 60.72 96.51 96.92 127.87 78.82 127.87 42.61 96.51 60.72" style="fill: none;stroke: #000;stroke-miterlimit: 10;fill-rule: evenodd"/>
    </g>
  </g>
</svg>
