<?xml version="1.0" encoding="utf-8"?>
<!-- Generator: Adobe Illustrator 22.1.0, SVG Export Plug-In . SVG Version: 6.00 Build 0)  -->
<svg version="1.1" id="Layer_1" xmlns="http://www.w3.org/2000/svg" xmlns:xlink="http://www.w3.org/1999/xlink" x="0px" y="0px"
	 viewBox="0 0 135 135.4" style="enable-background:new 0 0 135 135.4;" xml:space="preserve">
<style type="text/css">
	.st0{fill:none;stroke:#231F20;stroke-width:0.5;stroke-miterlimit:10;}
</style>
<title>hashicorp</title>
<g>
	<polygon class="st0" points="57.5,4.3 7.6,33.1 7.6,33.1 7.6,102.2 26.4,113.1 26.4,43.9 57.5,25.9 	"/>
	<polygon class="st0" points="77.5,4.3 77.5,59.4 57.5,59.4 57.5,38.8 38.8,49.6 38.8,120.2 57.5,131 57.5,76.1 77.5,76.1 
		77.5,96.5 96.2,85.7 96.2,15.1 	"/>
	<polygon class="st0" points="77.5,131.1 127.4,102.3 127.4,102.2 127.4,33.1 108.6,22.3 108.6,91.4 77.5,109.4 	"/>
	<line class="st0" x1="77.5" y1="123.3" x2="84.2" y2="127.2"/>
	<line class="st0" x1="38.8" y1="101.1" x2="57.5" y2="111.9"/>
	<line class="st0" x1="7.6" y1="83.2" x2="26.5" y2="94"/>
	<line class="st0" x1="82.6" y1="106.5" x2="101.4" y2="117.2"/>
	<line class="st0" x1="38.8" y1="81.3" x2="57.5" y2="92"/>
	<line class="st0" x1="7.6" y1="63.4" x2="26.4" y2="74.1"/>
	<line class="st0" x1="99.8" y1="96.5" x2="118.6" y2="107.3"/>
	<line class="st0" x1="77.5" y1="83.7" x2="88.6" y2="90.1"/>
	<line class="st0" x1="38.8" y1="61.4" x2="64.3" y2="76.1"/>
	<line class="st0" x1="7.6" y1="43.5" x2="26.4" y2="54.3"/>
	<line class="st0" x1="108.6" y1="81.7" x2="127.4" y2="92.5"/>
	<line class="st0" x1="69.7" y1="59.4" x2="96.2" y2="74.6"/>
	<line class="st0" x1="45.8" y1="45.6" x2="57.5" y2="52.4"/>
	<line class="st0" x1="15.8" y1="28.4" x2="34.6" y2="39.2"/>
	<line class="st0" x1="108.6" y1="61.9" x2="127.4" y2="72.7"/>
	<line class="st0" x1="77.5" y1="44" x2="96.2" y2="54.8"/>
	<line class="st0" x1="33" y1="18.5" x2="51.8" y2="29.2"/>
	<line class="st0" x1="108.6" y1="42.1" x2="127.4" y2="52.8"/>
	<line class="st0" x1="77.5" y1="24.2" x2="96.2" y2="34.9"/>
	<line class="st0" x1="50.2" y1="8.5" x2="57.5" y2="12.7"/>
</g>
</svg>
