<svg xmlns="http://www.w3.org/2000/svg" width="160" height="160" viewBox="0 0 160 160">
  <title>nomad</title>
  <g>
    <line x1="23.11" y1="47.58" x2="61.17" y2="69.94" fill="none" stroke="#000" stroke-miterlimit="10"/>
    <line x1="105.51" y1="64.96" x2="136.89" y2="47.49" fill="none" stroke="#000" stroke-miterlimit="10"/>
    <line x1="80" y1="88.71" x2="80" y2="145.01" fill="none" stroke="#000" stroke-miterlimit="10"/>
    <polygon points="90.5 95.2 72.42 84.38 72.42 106.03 55.35 116.86 55.35 73.53 68.88 65.25 87.58 75.69 87.58 54.01 105.52 43.23 105.52 86.53 90.5 95.2" fill="none" stroke="#000" stroke-miterlimit="10"/>
    <line x1="80" y1="139.14" x2="85.16" y2="142.07" fill="none" stroke="#000" stroke-miterlimit="10"/>
    <line x1="80" y1="134.53" x2="89.21" y2="139.75" fill="none" stroke="#000" stroke-miterlimit="10"/>
    <line x1="80" y1="129.91" x2="93.26" y2="137.44" fill="none" stroke="#000" stroke-miterlimit="10"/>
    <line x1="80" y1="125.3" x2="97.31" y2="135.12" fill="none" stroke="#000" stroke-miterlimit="10"/>
    <line x1="80" y1="120.69" x2="101.36" y2="132.81" fill="none" stroke="#000" stroke-miterlimit="10"/>
    <line x1="80" y1="116.08" x2="105.48" y2="130.53" fill="none" stroke="#000" stroke-miterlimit="10"/>
    <line x1="80" y1="111.46" x2="109.46" y2="128.18" fill="none" stroke="#000" stroke-miterlimit="10"/>
    <line x1="80" y1="106.85" x2="113.51" y2="125.86" fill="none" stroke="#000" stroke-miterlimit="10"/>
    <line x1="80.48" y1="101.86" x2="118.05" y2="123.17" fill="none" stroke="#000" stroke-miterlimit="10"/>
    <line x1="80" y1="97.63" x2="121.62" y2="121.24" fill="none" stroke="#000" stroke-miterlimit="10"/>
    <line x1="80" y1="93.01" x2="125.67" y2="118.92" fill="none" stroke="#000" stroke-miterlimit="10"/>
    <line x1="91.26" y1="94.79" x2="129.72" y2="116.61" fill="none" stroke="#000" stroke-miterlimit="10"/>
    <line x1="95.24" y1="92.44" x2="133.77" y2="114.29" fill="none" stroke="#000" stroke-miterlimit="10"/>
    <line x1="99.15" y1="90.04" x2="136.9" y2="111.45" fill="none" stroke="#000" stroke-miterlimit="10"/>
    <line x1="103.48" y1="87.89" x2="136.98" y2="106.89" fill="none" stroke="#000" stroke-miterlimit="10"/>
    <line x1="105.46" y1="84.4" x2="136.91" y2="102.24" fill="none" stroke="#000" stroke-miterlimit="10"/>
    <line x1="105.51" y1="79.79" x2="136.91" y2="97.6" fill="none" stroke="#000" stroke-miterlimit="10"/>
    <line x1="105.46" y1="75.17" x2="136.91" y2="93.01" fill="none" stroke="#000" stroke-miterlimit="10"/>
    <line x1="105.51" y1="70.59" x2="136.89" y2="88.39" fill="none" stroke="#000" stroke-miterlimit="10"/>
    <line x1="105.33" y1="65.87" x2="136.89" y2="83.78" fill="none" stroke="#000" stroke-miterlimit="10"/>
    <line x1="108.8" y1="63.23" x2="136.89" y2="79.17" fill="none" stroke="#000" stroke-miterlimit="10"/>
    <line x1="112.73" y1="60.85" x2="136.89" y2="74.55" fill="none" stroke="#000" stroke-miterlimit="10"/>
    <line x1="116.97" y1="58.64" x2="136.89" y2="69.94" fill="none" stroke="#000" stroke-miterlimit="10"/>
    <line x1="120.92" y1="56.27" x2="136.89" y2="65.33" fill="none" stroke="#000" stroke-miterlimit="10"/>
    <line x1="125.25" y1="54.11" x2="136.89" y2="60.72" fill="none" stroke="#000" stroke-miterlimit="10"/>
    <line x1="129.32" y1="51.81" x2="136.89" y2="56.1" fill="none" stroke="#000" stroke-miterlimit="10"/>
    <line x1="133.6" y1="49.63" x2="136.89" y2="51.49" fill="none" stroke="#000" stroke-miterlimit="10"/>
    <polygon points="80 145.01 80 145.01 136.89 112.51 136.89 47.49 136.89 47.49 79.53 14.98 23.11 47.59 23.11 47.59 23.11 112.51 80 145.01" fill="none" stroke="#000" stroke-miterlimit="10"/>
  </g>
</svg>
